/* XPM */
static char *bde30e641b31485fc5d8c4742ae2794e34TZssAPzEWGTuJI[] = {
/* columns rows colors chars-per-pixel */
"32 32 128 2 ",
"   c #050403",
".  c #0E0C0C",
"X  c #2D1B1E",
"o  c #612721",
"O  c #B9451D",
"+  c #F1641F",
"@  c #FCA570",
"#  c #FFE0B7",
"$  c white",
"%  c #FFF089",
"&  c #F8C53A",
"*  c #E88A36",
"=  c #B05B2C",
"-  c #673931",
";  c #271F1B",
":  c #4C3D2E",
">  c #855F39",
",  c #D39741",
"<  c #F8F644",
"1  c #D5DC1D",
"2  c #ADB834",
"3  c #7F8E44",
"4  c #586335",
"5  c #333C24",
"6  c #181C19",
"7  c #293F21",
"8  c #477238",
"9  c #61A53F",
"0  c #8FD032",
"q  c #C4F129",
"w  c #D0FFEA",
"e  c #97EDCA",
"r  c #59CF93",
"t  c #42A459",
"y  c #3D6F43",
"u  c #27412D",
"i  c #14121D",
"p  c #1B2447",
"a  c #2B4E95",
"s  c #2789CD",
"d  c #42BFE8",
"f  c #73EFE8",
"g  c #F1F2FF",
"h  c #C9D4FD",
"j  c #8AA1F6",
"k  c #4572E3",
"l  c #494182",
"z  c #7864C6",
"x  c #9C8BDB",
"c  c #CEAAED",
"v  c #FAD6FF",
"b  c #EEB59C",
"n  c #D480BB",
"m  c #9052BC",
"M  c #171516",
"N  c #373334",
"B  c #695B59",
"V  c #B28B78",
"C  c #E2B27E",
"Z  c #F6D896",
"A  c #FCF7BE",
"S  c #ECEBE7",
"D  c #CBC6C1",
"F  c #A69E9A",
"G  c #807B7A",
"H  c #595757",
"J  c #323232",
"K  c #4F342F",
"L  c #8C5B3E",
"P  c #C68556",
"I  c #D6A851",
"U  c #B47538",
"Y  c #724B2C",
"T  c #452A1B",
"R  c #61683A",
"E  c #939446",
"W  c #C6B858",
"Q  c #EFDD91",
"!  c #B5E7CB",
"~  c #86C69A",
"^  c #5D9B79",
"/  c #486859",
"(  c #2C3B39",
")  c #171819",
"_  c #2C3438",
"`  c #465456",
"'  c #64878C",
"]  c #8AC4C3",
"[  c #AFE9DF",
"{  c #DCEAEE",
"}  c #B8CCD8",
"|  c #88A3BC",
" . c #5E718E",
".. c #485262",
"X. c #282C3C",
"o. c #464762",
"O. c #696682",
"+. c #9A97B9",
"@. c #C5C7DD",
"#. c #E6E7F0",
"$. c #EEE6EA",
"%. c #E3CDDF",
"&. c #BFA5C9",
"*. c #87738F",
"=. c #564F5B",
"-. c #322F35",
";. c #36282B",
":. c #654956",
">. c #966888",
",. c #C090A9",
"<. c #D4B8B8",
"1. c #EAE0DD",
"2. c #F1EBDB",
"3. c #DDCEBF",
"4. c #BDA499",
"5. c #886E6A",
"6. c #594D4D",
"7. c #33272A",
"8. c #B29476",
"9. c #E1BF89",
"0. c #F8E398",
"q. c #FFE9E3",
"w. c #FDC9C9",
"e. c #F6A2A8",
"r. c #E27285",
"t. c #B25266",
"y. c #64364B",
"u. c #2A1E23",
/* pixels */
"H H H H H H H H H H H H H H G H H H H H H H H H H H H H H H H H ",
"F F F F F F F F F F F F G G G J F F F F F F F D D D D F F F F F ",
"F F F F F F F F F F F G T T T T T T T F G F F F F F F F F F G G ",
"G G 8 G G G G G G 9 q T T T T T T T T T T T G G G G G G G G G G ",
"H 8 8 8 8 8 8 9 9 T T 0 T K K T - K T T T T T H J J H H H J H G ",
"H F F D 8 D D T T T K K K K K T - K K K K T T T F F F F F G G G ",
"H F F F F F T T K K K K K K K T - K K K K K K T T F G G G G G G ",
"H G G G G T T K K K K K K o o T - o K K K K K K T T G G G G G G ",
"H H H H T T K K K K K o o X X T - X o o K K K K K T T J H H H H ",
"F F F T T T K K K K o X X K o T - K X X o K K K K T T T F F F F ",
"F F F T T K K K K o X K K K o T - K K K X o K K K K T T F G G G ",
"G G G T T K K K o X K K K K o T - K K K K X o K K K T T G G G G ",
"H H T T T K K K o K K K K K o T - K K K K K o K K K T T T J J G ",
"H F T T K K K o o o o o o o o T - o o o o o o o K K K T T F F G ",
"H F T T K K K o o o X X X o X T - o X X X X o o K K K T T F F G ",
"H G T T K K K o X X o K K o K T - o K K o o X o K K K T T G G G ",
"J J T T K K K o K K X o K o K T - o K o X X K o K K K T T H J J ",
"F F T T K K K o K K K X o o K T - X o X K K K o K K K q 0 9 F F ",
"F F 8 T K 8 K X o K K K o X o T - o o K K K o X K K 0 T T 9 9 9 ",
"8 8 8 8 8 K K K o K K K o K X T - X o K K K o K K K K T T 8 8 9 ",
"J J T 9 q K K K X o K K o K o T - o o K K o X K K K K T T J J 8 ",
"J F T T 9 0 K K K X o M M ) X T - ) ) M o X K K K K K T T F F 8 ",
"H F T T K K K K K K X o o M K T - M o o X K K K K K K T T F F G ",
"H G T T K K K K K K K X X o o T - o X X K K K K K K K T T G G G ",
"H H T T K K K K K K K K K X X T - X K K K K K K K K K T T H H H ",
"D F T T K K K K K K K K K K K T - K K K K K K K K K K T T D D D ",
"F F T T K K K K K K K K K K K T - K K K K K K K K K K T T F F F ",
"G G T T K K K K K K K K K K K T - K K K K K K K K K K T T G G G ",
"H H 0 0 q q K K K K K K K K K T - K K K K K K K K K K T T H H G ",
"0 9 9 9 9 0 q K K K K K K K K T - K K K K K K K K K K T T F F G ",
"9 9 8 T K K K 0 K K K K K K K T - K K K K K K K K K q 0 9 F 8 8 ",
"9 8 8 8 8 - - - - - - - - - - 8 8 8 - - - - - - - 0 - T 9 9 8 9 "
};
