/* XPM */
static char *_cc2220d1f374688807bd56de7ab2ad1JrCpINkf5m9f0Xsu[] = {
/* columns rows colors chars-per-pixel */
"32 32 128 2 ",
"   c #050403",
".  c #0E0C0C",
"X  c #2D1B1E",
"o  c #612721",
"O  c #B9451D",
"+  c #F1641F",
"@  c #FCA570",
"#  c #FFE0B7",
"$  c white",
"%  c #FFF089",
"&  c #F8C53A",
"*  c #E88A36",
"=  c #B05B2C",
"-  c #673931",
";  c #271F1B",
":  c #4C3D2E",
">  c #855F39",
",  c #D39741",
"<  c #F8F644",
"1  c #D5DC1D",
"2  c #ADB834",
"3  c #7F8E44",
"4  c #586335",
"5  c #333C24",
"6  c #181C19",
"7  c #293F21",
"8  c #477238",
"9  c #61A53F",
"0  c #8FD032",
"q  c #C4F129",
"w  c #D0FFEA",
"e  c #97EDCA",
"r  c #59CF93",
"t  c #42A459",
"y  c #3D6F43",
"u  c #27412D",
"i  c #14121D",
"p  c #1B2447",
"a  c #2B4E95",
"s  c #2789CD",
"d  c #42BFE8",
"f  c #73EFE8",
"g  c #F1F2FF",
"h  c #C9D4FD",
"j  c #8AA1F6",
"k  c #4572E3",
"l  c #494182",
"z  c #7864C6",
"x  c #9C8BDB",
"c  c #CEAAED",
"v  c #FAD6FF",
"b  c #EEB59C",
"n  c #D480BB",
"m  c #9052BC",
"M  c #171516",
"N  c #373334",
"B  c #695B59",
"V  c #B28B78",
"C  c #E2B27E",
"Z  c #F6D896",
"A  c #FCF7BE",
"S  c #ECEBE7",
"D  c #CBC6C1",
"F  c #A69E9A",
"G  c #807B7A",
"H  c #595757",
"J  c #323232",
"K  c #4F342F",
"L  c #8C5B3E",
"P  c #C68556",
"I  c #D6A851",
"U  c #B47538",
"Y  c #724B2C",
"T  c #452A1B",
"R  c #61683A",
"E  c #939446",
"W  c #C6B858",
"Q  c #EFDD91",
"!  c #B5E7CB",
"~  c #86C69A",
"^  c #5D9B79",
"/  c #486859",
"(  c #2C3B39",
")  c #171819",
"_  c #2C3438",
"`  c #465456",
"'  c #64878C",
"]  c #8AC4C3",
"[  c #AFE9DF",
"{  c #DCEAEE",
"}  c #B8CCD8",
"|  c #88A3BC",
" . c #5E718E",
".. c #485262",
"X. c #282C3C",
"o. c #464762",
"O. c #696682",
"+. c #9A97B9",
"@. c #C5C7DD",
"#. c #E6E7F0",
"$. c #EEE6EA",
"%. c #E3CDDF",
"&. c #BFA5C9",
"*. c #87738F",
"=. c #564F5B",
"-. c #322F35",
";. c #36282B",
":. c #654956",
">. c #966888",
",. c #C090A9",
"<. c #D4B8B8",
"1. c #EAE0DD",
"2. c #F1EBDB",
"3. c #DDCEBF",
"4. c #BDA499",
"5. c #886E6A",
"6. c #594D4D",
"7. c #33272A",
"8. c #B29476",
"9. c #E1BF89",
"0. c #F8E398",
"q. c #FFE9E3",
"w. c #FDC9C9",
"e. c #F6A2A8",
"r. c #E27285",
"t. c #B25266",
"y. c #64364B",
"u. c #2A1E23",
/* pixels */
"7 8 8 8 8 9 q 7 7 8 8 8 8 8 8 8 8 8 7 8 8 8 9 8 8 8 8 8 9 7 7 7 ",
"9 9 8 8 8 8 9 q 9 9 8 8 8 8 8 8 8 9 7 8 8 8 8 8 8 8 8 8 8 8 9 q ",
"7 9 9 8 8 8 8 8 7 8 8 8 9 8 8 8 9 8 9 9 8 8 8 8 8 9 8 8 8 9 q 8 ",
"8 7 8 9 9 8 8 8 7 8 8 8 8 9 8 8 8 8 8 7 7 8 8 9 9 8 8 8 8 8 8 8 ",
"8 7 8 8 8 8 8 8 7 8 8 8 9 9 8 8 8 8 8 8 7 7 9 8 8 8 8 8 8 8 8 8 ",
"8 7 8 8 8 8 8 8 q 9 8 8 9 8 8 8 0 8 8 8 8 7 8 8 8 8 q 0 8 8 8 8 ",
"9 9 9 8 8 8 9 9 7 8 8 8 8 8 8 8 8 0 0 8 8 7 8 8 8 0 9 8 8 8 8 8 ",
"9 7 8 8 8 8 8 8 7 7 8 8 8 8 8 8 8 8 9 9 9 7 8 8 8 9 8 8 8 8 8 9 ",
"7 7 7 7 8 8 7 7 7 9 9 q 8 8 0 8 8 8 8 8 8 7 7 q 8 8 8 8 8 8 8 8 ",
"7 8 8 0 7 q 9 8 8 7 7 9 9 8 8 0 0 9 8 8 8 9 0 8 8 8 8 9 9 8 8 8 ",
"7 8 8 8 0 9 8 8 8 8 7 8 8 8 8 8 8 9 8 8 8 8 7 8 8 8 9 9 8 8 8 7 ",
"8 8 8 8 8 8 8 8 8 8 7 q 0 9 9 8 8 8 8 8 9 9 0 8 8 8 8 8 8 7 9 9 ",
"9 8 8 8 8 8 8 9 8 8 0 8 8 8 t 9 8 8 9 9 9 7 y q 0 8 8 8 7 7 8 9 ",
"7 8 8 8 8 9 9 8 8 8 7 7 8 8 8 8 8 8 8 7 7 8 7 7 7 7 9 9 7 8 8 8 ",
"7 8 8 8 8 8 8 8 8 8 8 7 9 8 8 8 0 9 8 7 8 8 7 9 9 8 8 9 9 8 8 8 ",
"9 0 8 8 8 8 8 8 8 q 0 9 9 8 8 q 9 8 7 7 9 9 8 7 8 9 8 8 8 9 8 8 ",
"7 9 q 0 8 8 8 8 0 8 8 8 7 7 8 0 8 7 7 8 8 9 9 7 8 8 8 8 8 8 8 8 ",
"8 7 8 8 8 8 8 8 8 8 8 8 8 7 7 7 7 7 9 8 8 8 8 7 8 9 9 q 8 8 8 8 ",
"8 7 8 8 8 9 8 8 8 8 8 8 9 9 7 7 7 0 9 8 8 8 8 7 7 8 9 9 9 8 8 0 ",
"q 9 8 8 8 9 9 8 8 8 8 q 7 7 8 7 8 0 8 8 8 9 9 8 7 7 8 8 8 8 8 0 ",
"7 7 9 8 8 8 8 9 8 8 0 7 7 8 8 7 8 q 8 8 8 9 9 8 7 7 7 7 7 7 7 7 ",
"8 7 7 8 8 8 8 8 8 8 8 7 8 8 9 7 7 8 8 8 8 8 9 8 7 8 9 q 8 8 8 8 ",
"8 8 7 8 0 q 8 8 7 7 7 8 8 0 9 8 7 8 8 9 8 8 8 7 7 8 8 9 q 8 8 8 ",
"8 8 0 q 9 9 q 0 7 8 8 0 q 8 8 8 7 8 9 9 7 8 7 7 8 8 8 8 8 9 8 8 ",
"8 q 9 7 7 8 8 9 8 8 0 8 8 8 8 8 8 7 9 8 7 7 7 8 9 9 8 8 8 8 8 8 ",
"8 8 8 7 7 8 8 8 8 8 8 8 8 8 0 9 8 7 7 7 8 9 7 7 8 8 9 8 8 8 8 8 ",
"8 8 8 7 7 7 8 8 8 8 8 8 8 q 0 8 8 7 7 9 8 q 8 7 8 8 8 8 8 8 8 8 ",
"9 9 8 7 8 7 7 8 0 8 8 8 0 8 8 8 7 8 7 8 q q 8 8 7 8 8 8 8 9 8 8 ",
"8 8 8 9 q 8 7 7 q 9 8 8 8 8 7 7 8 8 7 8 q 8 8 8 9 7 7 7 9 8 8 8 ",
"8 8 8 7 9 0 8 7 8 0 8 8 7 7 7 8 9 8 7 8 0 8 8 8 9 8 8 7 7 8 8 8 ",
"7 7 7 7 8 8 8 7 8 8 7 7 7 8 9 9 8 9 7 0 8 8 8 9 9 8 8 8 7 9 q 9 ",
"9 9 8 8 8 8 8 7 7 7 7 8 8 9 8 8 8 8 7 9 8 8 8 9 8 8 8 8 q 9 8 8 "
};
