/* XPM */
static char *f525d4bf6c7e497de75aceb892e69e3ajeshvKSwMsfeGFVV[] = {
/* columns rows colors chars-per-pixel */
"63 46 194 2 ",
"   c None",
".  c #040506",
"X  c #0A0506",
"o  c #060807",
"O  c #0A0907",
"+  c #070708",
"@  c #0B0708",
"#  c #06090A",
"$  c #0B0A0A",
"%  c #140405",
"&  c #190304",
"*  c #140E07",
"=  c #150708",
"-  c #130C0B",
";  c #1B0D0C",
":  c #0F100E",
">  c #14100E",
",  c #1C110B",
"<  c #0E0F10",
"1  c #141312",
"2  c #1A1513",
"3  c #1D1916",
"4  c #16161A",
"5  c #18171D",
"6  c #151E1F",
"7  c #1D1A1A",
"8  c #210204",
"9  c #2D0507",
"0  c #220709",
"q  c #2A0509",
"w  c #210E0D",
"e  c #280A0C",
"r  c #360004",
"t  c #390001",
"y  c #24110F",
"u  c #2B140F",
"i  c #3D100F",
"p  c #210F10",
"a  c #2C0F11",
"s  c #251312",
"d  c #2B1513",
"f  c #231A17",
"g  c #2E1914",
"h  c #2B1718",
"j  c #231C1B",
"k  c #2C1B1A",
"l  c #321615",
"z  c #3E1415",
"x  c #341916",
"c  c #381A17",
"v  c #321618",
"b  c #341B1A",
"n  c #3C1D1A",
"m  c #25211D",
"M  c #28201C",
"N  c #28211E",
"B  c #2A231E",
"V  c #2A231D",
"C  c #2A241D",
"Z  c #2D261E",
"A  c #29231E",
"S  c #33221F",
"D  c #3A221F",
"F  c #3D201C",
"G  c #151F20",
"H  c #1B1D21",
"J  c #231E21",
"K  c #281F22",
"L  c #1F2023",
"P  c #212023",
"I  c #272520",
"U  c #232325",
"Y  c #292521",
"T  c #2B2421",
"R  c #2A2620",
"E  c #2A2522",
"W  c #292721",
"Q  c #2C2520",
"!  c #2C2721",
"~  c #2D2622",
"^  c #2B2524",
"/  c #2B2422",
"(  c #2B2921",
")  c #2A2A25",
"_  c #2C2824",
"`  c #2E2824",
"'  c #2F2A25",
"]  c #2F2922",
"[  c #262529",
"{  c #242529",
"}  c #28242A",
"|  c #26292A",
" . c #2F2D28",
".. c #2B2A2C",
"X. c #302621",
"o. c #372622",
"O. c #342322",
"+. c #3B2523",
"@. c #3C2423",
"#. c #342A23",
"$. c #312B25",
"%. c #312B27",
"&. c #332B26",
"*. c #302C27",
"=. c #342C26",
"-. c #322B25",
";. c #3A2C27",
":. c #352728",
">. c #332D2A",
",. c #342F28",
"<. c #342C2A",
"1. c #3B2C2C",
"2. c #37302A",
"3. c #35322D",
"4. c #36312B",
"5. c #3B3129",
"6. c #3B332C",
"7. c #3D372D",
"8. c #3B332C",
"9. c #2F2D31",
"0. c #302F32",
"q. c #3F2F34",
"w. c #333232",
"e. c #3B3233",
"r. c #3E3831",
"t. c #3B3937",
"y. c #383638",
"u. c gray22",
"i. c #430809",
"p. c #440809",
"a. c #4F1111",
"s. c #471618",
"d. c #421E1D",
"f. c #44211E",
"g. c #4B241F",
"h. c #4C281F",
"j. c #442321",
"k. c #4B2522",
"l. c #432927",
"z. c #4C2824",
"x. c #402F29",
"c. c #442C2B",
"v. c #4B2B2A",
"b. c #512625",
"n. c #532925",
"m. c #5A2C26",
"M. c #542C2B",
"N. c #5B2D2B",
"B. c #43362F",
"V. c #46362E",
"C. c #41332D",
"Z. c #4C352E",
"A. c #4A392E",
"S. c #54312D",
"D. c #5C312D",
"F. c #443330",
"G. c #4D3432",
"H. c #443C34",
"J. c #443B33",
"K. c #4D3833",
"L. c #483F38",
"P. c #533332",
"I. c #5D3332",
"U. c #503E31",
"Y. c #5B3937",
"T. c #543B39",
"R. c #5D3938",
"E. c #612F2D",
"W. c #63312C",
"Q. c #6C352F",
"!. c #643533",
"~. c #6B3532",
"^. c #613935",
"/. c #6D3935",
"(. c #6B3B3A",
"). c #703730",
"_. c #723934",
"`. c #723C3B",
"'. c #7C3E3C",
"]. c #474037",
"[. c #484036",
"{. c #4C433B",
"}. c #4F483E",
"|. c #524A3E",
" X c #62453D",
".X c #7E403C",
"XX c #564840",
"oX c #554E42",
"OX c #5B5244",
"+X c #5D5248",
"@X c #83423F",
"#X c #844341",
"$X c #8C4543",
"%X c #914947",
/* pixels */
"                                                          2 2 4 1 1                                                           ",
"                                                        2 m 3 1 3 3 >                                                         ",
"                                                    1 2 3 7 2 3 3 2 1 2 2                                                     ",
"                                                  - 3 3 = = 7 T k = % 2 3 2                                                   ",
"                                              4 3 2 < w d h N _ C s d 0 1 2 2 4                                               ",
"                                      1 2 2 2 1 3 ; ; I Z =.j j 7 ( _ j ; - 1 2 2 1 2 1                                       ",
"                                    1 7 2 1 2 j 2 3 N j m C j j f m N m C > 2 7 2 > 3 7 1                                     ",
"                                  2 A 3 > O @ $ - I 3 - = = Z =.f @ - : 3 m 1 $ $ @ > f N >                                   ",
"                                1 3 > @     3 7 7 A > 8 r q ,.F.j w t 8 2 j f 1 4     # 2 3 4                                 ",
"                              3 f 2 3 ( N m #.j 1 7 s r p.l I j 3.h i i.d f 2 T =.j I ( 3 3 3 4                               ",
"                            2 m N T Q 7 > 3 j 1 & q o.1.#.,.4.$.H.5.V.5.h q = 2 Q 2 1 f Q T j j 3                             ",
"                            3 Z C 1       $ $   q D ,.N r.XX) P 3.L.7.' Z b q X - $     O 4 / I 3                             ",
"                          3 f f @ >       @ .   j #.J > ' %.[ [ L  .6.) m ) +.b # $       - < j 3 3                           ",
"                        1 3 1 @ $       > X f %.#.r.2 # # 4 w.0...3 # 1 : 4 ^  .2 O 1     - $ $ 1 3 1                         ",
"                      2 3 - O < -     N 7 2 =.6.' 4.= & % H y.y.y.J % % % . $ T Q > 2 7     - $ . 2 2 1                       ",
"                      3 T 1 O O $   2 f Q T T ' +.n s.a.d  . .w.w.1.d q z d.h 1 N j j j 3   $ $ O 3 T 3                       ",
"                      f X.7 ( $.e.H.H.2.;.M > f Q._./.M.A N j m j 3 O.!.!._./.> O j #.6.].L.3._ Z 7 ' 3                       ",
"                    - j T H.[.5.T 3 N #.7.1 = j.D.S.P.I.2 . O . $ . O./.!.!.(.v.X - 7 3 j f Q 6.{.B.N 3                       ",
"                    7 ,.#.7 > @ . > 2 j $ X :...{ | | ..7 > 1 4 4 1 H { { { { 9.l X # 2 N     - 4 f 6.$.3                     ",
"                7 m I 3 - - 1     @ . . s b.1 ; 2 > $ # < [ w.9.} H < # # 1 2 $ s N.1 . T       > > 1 f Z j                   ",
"              m f N 3 . O 1       > - n ~.z.l d.d.d.n d.I ..w.w.[ { j d.c d.d.d.l n.W.d 2 1       - . O f m m                 ",
"            m j 3 $ .             2 d.m.d.d.z.k.b.m.`.G.{ U w.9.} J { I._.n.g.j.n.d.g.E.n 2           # . 1 f m               ",
"            m f $ .             n c z.d.j.W./.N.E.).P.H U } ..{ { H H J ~./.E.~.'.E.d.d.h.l d.            . > m N             ",
"          m 3.m O           m.g.x g.g.x n.N.).Q.E.$XN.< H 4 < $ $ < 5 1 E.#X@X@X@X).g.x g.f.x h.          . $ 4.#.3           ",
"        j 1.B.3 $         D.D.d.x g.d.d.n.#X/.b.d.M.~.D + @ < 4 < $ # S M.l.I.@X@X~.n.n g.k.d k.N.D.      @ 1 =.J.A           ",
"        j H.6.f f     z.z.N.m.c c b.k.b.n.'.~.n.k K D D - + $ # $ $ # @.l.b ~./././.n.n.j.z.x n W.n.z.      2 Q H.1.3         ",
"        7 r.6.7 l m.b.b.n.g.f.n c c k.n.N._.~.`.M.S Q.v.:.P.(.~.M.} l.M.@.M.'._.'./.n.m.g.c x n d.b.b.n.N.g.2 ' r.,.:         ",
"        1 ^  .O.N.n.n.b.d.l f.x s c b.b.v.M.~.%X@XS N.$XI.T.R. XF.F m.v.:.!.`.M.!.~.g.k.j.l p d.f.x j.n.z.N.k.T ,.7 $         ",
"        s c S..X).j.f.l d b n.x l d.n n b.M.E.#X'.P.@.`.$X!.q.y.c.~._.v.:.W.n.M._./.d.l n n l n b.l d n g.m.'./.j.b -         ",
"        d d.).W.j.c n ; x j.k.f.c n b c b.(.E.(.(.v.K l.v.O.c.M.y.F.v.:.<.M._.!.!.N.j.l l c z g.z.j.p d n d.b.).m.l y         ",
"        c n f.Z K K J H F n k.d.x f.d l j./.`.(.!.I.K 9.:.c.I.R.P.G.c.y.q.~.#Xv.D./.j.d d n l j.g.d.k 5 j K K D c b           ",
"      n.D.1.H 6 H } } } j n g.d.f.n w l k._.`.I.l.q.q.O.!.(.P.R.(.I.+.q.1.+.W.!.D.N.n w w d.d.g.j.x J { 9.[ 7 6 U 1.S.n.      ",
"  f.n H L | | H 5 H 5 < D k.F g.f.x d y b n.F O.:.c.m.O.j.N.F b b.n K j.z.K k P.!.D.k s , n d.d.d.b.c < 7 H 5 H [ { U 7 n g.  ",
"d b 1 1 4 | U 7 < $ # n N.g.g.j.f.l y ; k :.I j k h h / j J J j 2 J K f h h j f b M.k ; 2 l d.d.d.z.N.n + $ < H U { 5 1 4 l s ",
"+ - # . $ 1 > $ + . h N.k.j.b.n f.b ; X b I.:.b v f j :.K c.F.F.:.K } K / / 1.<.:.@.d = ; l n d.z.d.g.N.k . + $ 1 1 # o O - . ",
"  . # + . o o . . f b.f.m.m.k.b c y = @ j.P.P.v.M.O.S G.K S n @.z.j 1.P.G.!.v.c.P.P.k ; ; s d.c n.n.m.f.b.s . . . . . # O #   ",
"    . $ @ ; * , x b.g.m.N.n.d.u x ; % X x z.n.d.n v.l.I.:.h @.g.n } !.!.E.v.g.v.N.n.F @ = y c h g.n.N.m.g.b.x > > ; O $ O     ",
"    - , u u F f.f.c m.W.k.d.c d d +.5.$.V.A.K.C.:.j.I.!.M.2 j.b s 1.I.I.M.j.F.K.K.K.A.;.C.x d u n k.f.N.m.x d.g.x u u y *     ",
"    * * * l f.c * c n.g.d.c l a d 6.oXOX+XoXOXOXXXh I.(.k.2 d a 2 v.M.k.d.S XXoXOX|.OXOXoX+.y d c n F g.b.c * c F l * * *     ",
"    - , . * , o , j.d.z.n x s s g , 7 N C f f m 7 ; n n.j.s s a s v.n c k.h j P m f m m 7 h v w l c x g.f.k., O , * . , >     ",
"    O * * O @ * d.n n g.l h p d l - . . . . . . . - v j.n.k ; s p n n j.k.- . . . . . . . ; b s d g k c x n n * O O * , O     ",
"    # O , , O * y d x c l y ; d h - . . . . # O . 2 c k.N.F 1 ; d b.n.j.c = . O # . . . . - b s ; d g d ; w s - O , * O +     ",
"    O # O , , O @ @ ; l h ; = p g u a b x x g f.F v d.b.j.n ; O n D.k.f.n n f.g l c x s u l h w = s s y ; O @ * , , O . #     ",
"    O . . O * , * @ O ; s ; = s b c n.M.n l h f.M.k.M.z.d n d p m.j.d.b.f.M.f.l h n M.m.n c x ; = s w ; O O * * * O @ # .     ",
"    O # . # O - , * . . ; w = d d.g.k.f.y c x a k.z.z.v d k.n l d.d c g.j.j.s x c w j.z.g.f.F s ; y ; . . * , - O # . O @     ",
"    O $ # . O $ @ @ O @ ; ; s l c d.@.l h f.n h b j.n d b f.b ; w g f.f.c b d d.f.d x j.c c c l s ; ; O O O O $ O . $ $ #     "
};
